<svg width="100" height="100" xmlns="http://www.w3.org/2000/svg">
 <g id="Layer_1">
  <title>Layer 1</title>
  <path transform="rotate(-89.84 238.072 320.659)" id="svg_1" d="m186.07246,320.43836l52,-91.77919l52,91.77919l-26,0l0,92.22082l-52,0l0,-92.22082l-26,0z" stroke="#000" fill="#000000"/>
  <path id="svg_3" d="m80.05907,48.96692l-8.16568,-8.01469l0,-19.14155l-7.0003,0l0,12.2707l-16.33403,-16.032l-31.5,30.91755l7.49898,-0.17537l0,31.25782l47.66869,0l0,-31.08245l7.83233,0zm-31.5,26.61181l-15.55533,0l0,-18.32228l15.55533,0l0,18.32228zm15.11264,-7.85241l-10.22177,0l0,-10.57981l10.22177,0l0,10.57981z" stroke="#000" fill="#000000"/>
 </g>
</svg>